<?xml version="1.0"?>
<svg fill="#FFFFFF" xmlns="http://www.w3.org/2000/svg" viewBox="0 0 24 24" width="48px" height="48px">
    <path d="M12 2.163c3.204 0 3.584.012 4.85.07 1.17.054 1.97.24 2.427.405a4.92 4.92 0 0 1 1.78 1.15 4.92 4.92 0 0 1 1.15 1.78c.165.457.352 1.257.405 2.427.058 1.266.07 1.646.07 4.85s-.012 3.584-.07 4.85c-.054 1.17-.24 1.97-.405 2.427a4.92 4.92 0 0 1-1.15 1.78 4.92 4.92 0 0 1-1.78 1.15c-.457.165-1.257.352-2.427.405-1.266.058-1.646.07-4.85.07s-3.584-.012-4.85-.07c-1.17-.054-1.97-.24-2.427-.405a4.92 4.92 0 0 1-1.78-1.15 4.92 4.92 0 0 1-1.15-1.78c-.165-.457-.352-1.257-.405-2.427C2.175 15.647 2.163 15.267 2.163 12s.012-3.584.07-4.85c.054-1.17.24-1.97.405-2.427a4.92 4.92 0 0 1 1.15-1.78 4.92 4.92 0 0 1 1.78-1.15c.457-.165 1.257-.352 2.427-.405C8.416 2.175 8.796 2.163 12 2.163zm0-2.163C8.74 0 8.332.013 7.052.073c-1.28.062-2.153.275-2.906.584a6.93 6.93 0 0 0-2.5 1.641 6.93 6.93 0 0 0-1.641 2.5c-.31.753-.522 1.626-.584 2.906C.013 8.332 0 8.74 0 12c0 3.26.013 3.668.073 4.948.062 1.28.275 2.153.584 2.906a6.93 6.93 0 0 0 1.641 2.5 6.93 6.93 0 0 0 2.5 1.641c.753.31 1.626.522 2.906.584 1.28.062 1.688.073 4.948.073s3.668-.013 4.948-.073c1.28-.062 2.153-.275 2.906-.584a6.93 6.93 0 0 0 2.5-1.641 6.93 6.93 0 0 0 1.641-2.5c.31-.753.522-1.626.584-2.906.062-1.28.073-1.688.073-4.948s-.013-3.668-.073-4.948c-.062-1.28-.275-2.153-.584-2.906a6.93 6.93 0 0 0-1.641-2.5 6.93 6.93 0 0 0-2.5-1.641c-.753-.31-1.626-.522-2.906-.584C15.668.013 15.26 0 12 0zm0 5.838a6.162 6.162 0 1 0 0 12.324 6.162 6.162 0 0 0 0-12.324zm0 10.162a3.999 3.999 0 1 1 0-7.998 3.999 3.999 0 0 1 0 7.998zm6.406-10.845a1.44 1.44 0 1 0 0 2.882 1.44 1.44 0 0 0 0-2.882z"/>
</svg>
